<?xml version="1.0" encoding="UTF-8"?>
<svg id="Layer_1" xmlns="http://www.w3.org/2000/svg" version="1.1" viewBox="0 0 1000 1000">
  <!-- Generator: Adobe Illustrator 29.7.1, SVG Export Plug-In . SVG Version: 2.1.1 Build 8)  -->
  <defs>
    <style>
      .st0 {
        fill: #111827;
        fill-rule: evenodd;
      }
    </style>
  </defs>
  <g id="Shape_8">
    <path class="st0" d="M656.08,747.78c-41.35,26.56-87.86,40.02-138.25,40.02s-98.37-12.75-139-37.9c-40.58-25.1-72.47-59.36-94.78-101.82-22.21-42.17-33.48-92.08-33.48-148.35s11.25-106.38,33.42-149.22c22.33-43.14,53.56-77.42,92.82-101.9,39.35-24.52,85.47-36.95,137.07-36.95s96.45,12.36,137.71,36.74c41.38,24.5,74.43,63.95,87.59,90.24,11.46,22.84,18.67,48.99,21.06,76.76l.07.05-64.47.09c-20.81-22.17-50.39-36.05-83.25-36.05h-133.14v39.59h-124.28v48.54h124.28v51.09h-124.28v48.53h124.28v39.6h133.14c36.63,0,69.18-17.26,90.04-44.03l276.99-.34c0-39.99-2.08-130.91-9.32-185.93-16.64-126.08-83.39-240.02-174.2-297.38-3.2-2.02-6.41-4-9.66-5.93C708.14,26.69,620.41,3.09,525.69,3.09s-187.39,21.37-263.13,63.53c-75.6,42.09-135.63,100.97-178.41,174.99C41.3,315.75,19.58,402.59,19.58,499.73s21.73,182.44,64.61,257.19c42.76,74.66,103.4,133.81,180.23,175.87,77.07,42.19,166.3,63.58,265.21,63.58s183.85-24.83,261.32-73.82c72.27-45.69,127.4-109.87,164.06-190.92l-213.95-75.08c-19.72,37.01-48.26,67.66-84.99,91.23Z"/>
  </g>
</svg>