<?xml version="1.0" encoding="UTF-8"?>
<svg id="Logo" xmlns="http://www.w3.org/2000/svg" version="1.1" viewBox="0 0 506 116">
  <!-- Generator: Adobe Illustrator 29.7.1, SVG Export Plug-In . SVG Version: 2.1.1 Build 8)  -->
  <defs>
    <style>
      .st0 {
        fill-rule: evenodd;
      }

      .st0, .st1 {
        fill: #111827;
      }
    </style>
  </defs>
  <g id="Tjek___lpris">
    <g>
      <path class="st1" d="M25.92,87.26V22.42H2.24v-14.1h62.7v14.1h-23.57v64.84h-15.45Z"/>
      <path class="st1" d="M71.96,111.51c-4.29,0-8.38-1.17-12.29-3.5l5.98-12.29c1.2.6,2.31,1.07,3.33,1.41,1.02.34,1.9.51,2.65.51,3.61,0,5.41-2.37,5.41-7.1V30.88h14.88v60.67c0,6.39-1.73,11.31-5.19,14.77-3.46,3.46-8.38,5.19-14.77,5.19ZM84.48,22.08c-2.41,0-4.47-.86-6.2-2.59-1.73-1.73-2.59-3.8-2.59-6.2s.86-4.47,2.59-6.2c1.73-1.73,3.8-2.59,6.2-2.59s4.47.86,6.2,2.59c1.73,1.73,2.59,3.8,2.59,6.2s-.87,4.47-2.59,6.2-3.8,2.59-6.2,2.59Z"/>
      <path class="st1" d="M131.57,88.62c-5.56,0-10.49-1.26-14.77-3.78-4.28-2.52-7.65-5.99-10.09-10.43-2.44-4.43-3.67-9.55-3.67-15.34s1.26-10.9,3.78-15.34c2.52-4.44,5.98-7.91,10.37-10.43,4.4-2.52,9.45-3.78,15.17-3.78,4.96,0,9.53,1.3,13.7,3.89,4.17,2.59,7.52,6.39,10.04,11.39,2.52,5,3.78,11.07,3.78,18.21h-41.27c.38,3.76,1.99,6.75,4.85,8.96,2.86,2.22,6.09,3.33,9.7,3.33,3.08,0,5.6-.66,7.56-1.97,1.95-1.31,3.46-3.03,4.51-5.13l13.31,5.19c-1.58,3.16-3.63,5.88-6.15,8.18-2.52,2.29-5.51,4.04-8.96,5.24-3.46,1.2-7.41,1.8-11.84,1.8ZM119.4,51.97h24.36c-.23-2.33-.98-4.21-2.26-5.64-1.28-1.43-2.78-2.48-4.51-3.16-1.73-.68-3.42-1.01-5.07-1.01s-3.29.32-5.13.96c-1.84.64-3.46,1.67-4.85,3.1-1.39,1.43-2.24,3.35-2.54,5.75Z"/>
      <path class="st1" d="M168.09,87.26V8.33h14.88v43.53l19.28-20.97h17.7l-21.31,23.79,23,32.59h-17.48l-15-21.88-6.2,6.77v15.11h-14.88Z"/>
      <path class="st1" d="M290.09,87.26V8.33h14.88v78.94h-14.88Z"/>
      <path class="st1" d="M318.65,109.82V30.88h13.98l.68,8.01c1.88-3.01,4.27-5.32,7.16-6.94,2.89-1.62,6.26-2.42,10.09-2.42,5.19,0,9.68,1.2,13.48,3.61,3.79,2.41,6.75,5.81,8.85,10.21,2.1,4.4,3.16,9.64,3.16,15.73s-1.05,11.24-3.16,15.67c-2.11,4.44-5.06,7.86-8.85,10.26-3.8,2.4-8.29,3.61-13.48,3.61-3.76,0-7.07-.79-9.92-2.37-2.86-1.58-5.23-3.8-7.1-6.65v30.22h-14.88ZM346.73,74.97c2.71,0,5.09-.68,7.16-2.03,2.07-1.35,3.7-3.23,4.91-5.64,1.2-2.41,1.8-5.15,1.8-8.23s-.58-5.82-1.75-8.23c-1.17-2.4-2.78-4.27-4.85-5.58-2.07-1.31-4.46-1.97-7.16-1.97-2.56,0-4.85.68-6.88,2.03-2.03,1.35-3.61,3.21-4.74,5.58-1.13,2.37-1.69,5.09-1.69,8.18s.56,5.83,1.69,8.23c1.13,2.41,2.69,4.28,4.68,5.64,1.99,1.35,4.27,2.03,6.82,2.03Z"/>
      <path class="st1" d="M386.09,87.26V30.88h14.88v10.37c2.33-3.53,5.28-6.18,8.85-7.95,3.57-1.77,7.27-2.65,11.11-2.65v14.43c-3.46,0-6.71.41-9.75,1.24-3.04.83-5.51,2.18-7.39,4.06-1.88,1.88-2.82,4.28-2.82,7.22v29.66h-14.88Z"/>
      <path class="st1" d="M437.43,21.75c-2.26,0-4.25-.85-5.98-2.54-1.73-1.69-2.59-3.7-2.59-6.03s.86-4.34,2.59-6.03c1.73-1.69,3.72-2.54,5.98-2.54s4.34.85,6.03,2.54c1.69,1.69,2.54,3.7,2.54,6.03s-.85,4.34-2.54,6.03c-1.69,1.69-3.7,2.54-6.03,2.54ZM429.99,87.26V30.88h14.88v56.38h-14.88Z"/>
      <path class="st1" d="M480.18,88.62c-3.61,0-6.99-.55-10.15-1.64-3.16-1.09-5.94-2.67-8.34-4.74-2.41-2.07-4.29-4.6-5.64-7.61l12.74-5.86c1.13,1.8,2.67,3.37,4.62,4.68,1.95,1.32,4.21,1.97,6.77,1.97s4.4-.36,5.75-1.07c1.35-.71,2.03-1.75,2.03-3.1s-.55-2.35-1.64-2.99c-1.09-.64-2.58-1.18-4.45-1.63l-5.19-1.35c-5.41-1.43-9.68-3.7-12.8-6.82-3.12-3.12-4.68-6.71-4.68-10.77,0-5.79,1.86-10.26,5.58-13.42,3.72-3.16,9-4.74,15.84-4.74,3.53,0,6.82.53,9.87,1.58,3.04,1.05,5.66,2.52,7.84,4.4,2.18,1.88,3.68,4.06,4.51,6.54l-12.29,5.64c-.53-1.5-1.8-2.72-3.83-3.67-2.03-.94-4.06-1.41-6.09-1.41s-3.59.43-4.68,1.3c-1.09.87-1.63,2.05-1.63,3.55,0,.98.52,1.79,1.58,2.42,1.05.64,2.55,1.18,4.51,1.64l7.33,1.8c3.68.9,6.63,2.35,8.85,4.34,2.22,1.99,3.83,4.21,4.85,6.65,1.02,2.44,1.52,4.83,1.52,7.16,0,3.38-1,6.37-2.99,8.96-1.99,2.59-4.7,4.61-8.12,6.03-3.42,1.43-7.31,2.14-11.67,2.14Z"/>
    </g>
  </g>
  <g id="Shape_8">
    <path class="st0" d="M262.24,74.91c-2.47,1.59-5.25,2.39-8.26,2.39s-5.88-.76-8.31-2.27c-2.43-1.5-4.33-3.55-5.66-6.09-1.33-2.52-2-5.5-2-8.87s.67-6.36,2-8.92c1.33-2.58,3.2-4.63,5.55-6.09,2.35-1.47,5.11-2.21,8.19-2.21s5.76.74,8.23,2.2c2.47,1.46,4.45,3.82,5.23,5.39.68,1.36,1.12,2.93,1.26,4.59h0s-3.85,0-3.85,0c-1.24-1.32-3.01-2.15-4.98-2.15h-7.96v2.37h-7.43v2.9h7.43v3.05h-7.43v2.9h7.43v2.37h7.96c2.19,0,4.13-1.03,5.38-2.63l16.55-.02c0-2.39-.12-7.82-.56-11.11-.99-7.53-4.98-14.34-10.41-17.77-.19-.12-.38-.24-.58-.35-4.68-2.78-9.92-4.19-15.58-4.19s-11.2,1.28-15.73,3.8c-4.52,2.52-8.11,6.03-10.66,10.46-2.56,4.43-3.86,9.62-3.86,15.43s1.3,10.9,3.86,15.37c2.56,4.46,6.18,8,10.77,10.51,4.61,2.52,9.94,3.8,15.85,3.8s10.99-1.48,15.62-4.41c4.32-2.73,7.61-6.57,9.81-11.41l-12.79-4.49c-1.18,2.21-2.88,4.04-5.08,5.45Z"/>
  </g>
</svg>